# xmcd CD database file
#
# Track frame offsets:
#	150
#	15782
#	31863
#	51415
#	72499
#	89664
#	102760
#	132429
#	159520
#	184913
#	211337
#
# Disc length: 3288 seconds
#
# Revision: 0
# Processed by: cddbd v1.5.2PL0 Copyright (c) Steve Scherf et al.
# Submitted via: CDex 2.14
#
DISCID=930cd60b
DTITLE=Varios Artistas - Los Mejores Temas De La Historia Del Jazz - 1
DYEAR=2014
DGENRE=Jazz
TTITLE0=Billie Holiday - Stormy Blues
TTITLE1=Ella Fitzgerald - Let's Do It (Let's Fall In Love)
TTITLE2=Nina Simone - Don't Explain
TTITLE3=Diana Krall - The Look Of Love
TTITLE4=John Coltrane - Greensleeves
TTITLE5=George Benson - Sunny
TTITLE6=John Scofield - A Go Go
TTITLE7=Miles Davis - My Funny Valentine
TTITLE8=McCoy Tyner - Satin Doll
TTITLE9=Duke Ellington  Coleman Hawkins - Solitude
TTITLE10=Charlie Parker Quintet - Perdido - Live
EXTD=YEAR: 2014
EXTT0=
EXTT1=
EXTT2=
EXTT3=
EXTT4=
EXTT5=
EXTT6=
EXTT7=
EXTT8=
EXTT9=
EXTT10=
PLAYORDER=
